<?xml version="1.0" encoding="UTF-8"?>
<!DOCTYPE svg PUBLIC "-//W3C//DTD SVG 1.1//EN" "http://www.w3.org/Graphics/SVG/1.1/DTD/svg11.dtd">
<svg xmlns="http://www.w3.org/2000/svg" xmlns:xlink="http://www.w3.org/1999/xlink" version="1.1" width="739px" height="399px" viewBox="-0.5 -0.5 739 399"><defs><linearGradient x1="0%" y1="0%" x2="0%" y2="100%" id="mx-gradient-ffffff-1-009900-1-s-0"><stop offset="0%" style="stop-color:#ffffff"/><stop offset="100%" style="stop-color:#009900"/></linearGradient><clipPath id="mx-clip-0-30-30-30-0"><rect x="0" y="30" width="30" height="30"/></clipPath><clipPath id="mx-clip-36-30-244-30-0"><rect x="36" y="30" width="244" height="30"/></clipPath><clipPath id="mx-clip-36-60-244-30-0"><rect x="36" y="60" width="244" height="30"/></clipPath><clipPath id="mx-clip-0-90-30-30-0"><rect x="0" y="90" width="30" height="30"/></clipPath><clipPath id="mx-clip-36-90-244-30-0"><rect x="36" y="90" width="244" height="30"/></clipPath><clipPath id="mx-clip-36-120-244-30-0"><rect x="36" y="120" width="244" height="30"/></clipPath><clipPath id="mx-clip-36-150-244-30-0"><rect x="36" y="150" width="244" height="30"/></clipPath><clipPath id="mx-clip-36-180-244-30-0"><rect x="36" y="180" width="244" height="30"/></clipPath><clipPath id="mx-clip-36-210-244-30-0"><rect x="36" y="210" width="244" height="30"/></clipPath><clipPath id="mx-clip-36-240-244-30-0"><rect x="36" y="240" width="244" height="30"/></clipPath><clipPath id="mx-clip-36-270-244-30-0"><rect x="36" y="270" width="244" height="30"/></clipPath><clipPath id="mx-clip-370-30-30-30-0"><rect x="370" y="30" width="30" height="30"/></clipPath><clipPath id="mx-clip-406-30-234-30-0"><rect x="406" y="30" width="234" height="30"/></clipPath><clipPath id="mx-clip-370-60-30-30-0"><rect x="370" y="60" width="30" height="30"/></clipPath><clipPath id="mx-clip-406-60-234-30-0"><rect x="406" y="60" width="234" height="30"/></clipPath><clipPath id="mx-clip-406-90-234-30-0"><rect x="406" y="90" width="234" height="30"/></clipPath><clipPath id="mx-clip-406-120-234-30-0"><rect x="406" y="120" width="234" height="30"/></clipPath><clipPath id="mx-clip-406-150-234-30-0"><rect x="406" y="150" width="234" height="30"/></clipPath><clipPath id="mx-clip-406-180-234-30-0"><rect x="406" y="180" width="234" height="30"/></clipPath><clipPath id="mx-clip-406-210-234-30-0"><rect x="406" y="210" width="234" height="30"/></clipPath><clipPath id="mx-clip-406-240-234-30-0"><rect x="406" y="240" width="234" height="30"/></clipPath><clipPath id="mx-clip-406-270-234-30-0"><rect x="406" y="270" width="234" height="30"/></clipPath><clipPath id="mx-clip-370-300-30-30-0"><rect x="370" y="300" width="30" height="30"/></clipPath><clipPath id="mx-clip-406-300-234-30-0"><rect x="406" y="300" width="234" height="30"/></clipPath></defs><g><path d="M 0 30 L 0 0 L 280 0 L 280 30" fill="url(#mx-gradient-ffffff-1-009900-1-s-0)" stroke="#000000" stroke-miterlimit="10" pointer-events="all"/><path d="M 0 30 L 0 310 L 280 310 L 280 30" fill="#97d077" stroke="#000000" stroke-miterlimit="10" pointer-events="all"/><path d="M 0 30 L 280 30" fill="none" stroke="#000000" stroke-miterlimit="10" pointer-events="all"/><path d="M 30 30 L 30 310" fill="none" stroke="#000000" stroke-miterlimit="10" pointer-events="all"/><g fill="#000000" font-family="Helvetica" font-weight="bold" text-anchor="middle" font-size="12px"><text x="139.5" y="19.5">Accounts_Table</text></g><path d="M 0 30 M 280 30 M 280 60 L 0 60" fill="none" stroke="#000000" stroke-miterlimit="10" pointer-events="none"/><path d="M 0 30 M 30 30 M 30 60 M 0 60" fill="none" stroke="#000000" stroke-miterlimit="10" pointer-events="none"/><g fill="#000000" font-family="Helvetica" font-weight="bold" pointer-events="none" clip-path="url(#mx-clip-0-30-30-30-0)" text-anchor="middle" font-size="12px"><text x="14.5" y="49.5">PK</text></g><path d="M 30 30 M 280 30 M 280 60 M 30 60" fill="none" stroke="#000000" stroke-miterlimit="10" pointer-events="none"/><g fill="#000000" font-family="Helvetica" font-weight="bold" text-decoration="underline" pointer-events="none" clip-path="url(#mx-clip-36-30-244-30-0)" font-size="12px"><text x="37.5" y="49.5">AccountID INT AUTO INCREMENT</text></g><path d="M 0 60 M 280 60 M 280 90 M 0 90" fill="none" stroke="#000000" stroke-miterlimit="10" pointer-events="none"/><path d="M 0 60 M 30 60 M 30 90 M 0 90" fill="none" stroke="#000000" stroke-miterlimit="10" pointer-events="none"/><path d="M 30 60 M 280 60 M 280 90 M 30 90" fill="none" stroke="#000000" stroke-miterlimit="10" pointer-events="none"/><g fill="#000000" font-family="Helvetica" pointer-events="none" clip-path="url(#mx-clip-36-60-244-30-0)" font-size="12px"><text x="37.5" y="79.5">category VARCHAR(255)</text></g><path d="M 0 90 M 280 90 M 280 120 M 0 120" fill="none" stroke="#000000" stroke-miterlimit="10" pointer-events="none"/><path d="M 0 90 M 30 90 M 30 120 M 0 120" fill="none" stroke="#000000" stroke-miterlimit="10" pointer-events="none"/><g fill="#000000" font-family="Helvetica" pointer-events="none" clip-path="url(#mx-clip-0-90-30-30-0)" text-anchor="middle" font-size="12px"><text x="14.5" y="109.5">FK</text></g><path d="M 30 90 M 280 90 M 280 120 M 30 120" fill="none" stroke="#000000" stroke-miterlimit="10" pointer-events="none"/><g fill="#000000" font-family="Helvetica" pointer-events="none" clip-path="url(#mx-clip-36-90-244-30-0)" font-size="12px"><text x="37.5" y="109.5">name VARCHAR(255)</text></g><path d="M 0 120 M 280 120 M 280 150 M 0 150" fill="none" stroke="#000000" stroke-miterlimit="10" pointer-events="none"/><path d="M 0 120 M 30 120 M 30 150 M 0 150" fill="none" stroke="#000000" stroke-miterlimit="10" pointer-events="none"/><path d="M 30 120 M 280 120 M 280 150 M 30 150" fill="none" stroke="#000000" stroke-miterlimit="10" pointer-events="none"/><g fill="#000000" font-family="Helvetica" pointer-events="none" clip-path="url(#mx-clip-36-120-244-30-0)" font-size="12px"><text x="37.5" y="139.5">number VARCHAR(16)</text></g><path d="M 0 150 M 280 150 M 280 180 M 0 180" fill="none" stroke="#000000" stroke-miterlimit="10" pointer-events="none"/><path d="M 0 150 M 30 150 M 30 180 M 0 180" fill="none" stroke="#000000" stroke-miterlimit="10" pointer-events="none"/><path d="M 30 150 M 280 150 M 280 180 M 30 180" fill="none" stroke="#000000" stroke-miterlimit="10" pointer-events="none"/><g fill="#000000" font-family="Helvetica" pointer-events="none" clip-path="url(#mx-clip-36-150-244-30-0)" font-size="12px"><text x="37.5" y="169.5">routing VARCHAR(16)</text></g><path d="M 0 180 M 280 180 M 280 210 M 0 210" fill="none" stroke="#000000" stroke-miterlimit="10" pointer-events="none"/><path d="M 0 180 M 30 180 M 30 210 M 0 210" fill="none" stroke="#000000" stroke-miterlimit="10" pointer-events="none"/><path d="M 30 180 M 280 180 M 280 210 M 30 210" fill="none" stroke="#000000" stroke-miterlimit="10" pointer-events="none"/><g fill="#000000" font-family="Helvetica" pointer-events="none" clip-path="url(#mx-clip-36-180-244-30-0)" font-size="12px"><text x="37.5" y="199.5">code VARCHAR(255)</text></g><path d="M 0 210 M 280 210 M 280 240 M 0 240" fill="none" stroke="#000000" stroke-miterlimit="10" pointer-events="none"/><path d="M 0 210 M 30 210 M 30 240 M 0 240" fill="none" stroke="#000000" stroke-miterlimit="10" pointer-events="none"/><path d="M 30 210 M 280 210 M 280 240 M 30 240" fill="none" stroke="#000000" stroke-miterlimit="10" pointer-events="none"/><g fill="#000000" font-family="Helvetica" pointer-events="none" clip-path="url(#mx-clip-36-210-244-30-0)" font-size="12px"><text x="37.5" y="229.5">description VARCHAR(255)</text></g><path d="M 0 240 M 280 240 M 280 270 M 0 270" fill="none" stroke="#000000" stroke-miterlimit="10" pointer-events="none"/><path d="M 0 240 M 30 240 M 30 270 M 0 270" fill="none" stroke="#000000" stroke-miterlimit="10" pointer-events="none"/><path d="M 30 240 M 280 240 M 280 270 M 30 270" fill="none" stroke="#000000" stroke-miterlimit="10" pointer-events="none"/><g fill="#000000" font-family="Helvetica" pointer-events="none" clip-path="url(#mx-clip-36-240-244-30-0)" font-size="12px"><text x="37.5" y="259.5">type VARCHAR(16)</text></g><path d="M 0 270 M 280 270 M 280 300 M 0 300" fill="none" stroke="#000000" stroke-miterlimit="10" pointer-events="none"/><path d="M 0 270 M 30 270 M 30 300 M 0 300" fill="none" stroke="#000000" stroke-miterlimit="10" pointer-events="none"/><path d="M 30 270 M 280 270 M 280 300 M 30 300" fill="none" stroke="#000000" stroke-miterlimit="10" pointer-events="none"/><g fill="#000000" font-family="Helvetica" pointer-events="none" clip-path="url(#mx-clip-36-270-244-30-0)" font-size="12px"><text x="37.5" y="289.5">normalDebit BOOLEAN</text></g><path d="M 370 30 L 370 0 L 640 0 L 640 30" fill="url(#mx-gradient-ffffff-1-009900-1-s-0)" stroke="#000000" stroke-miterlimit="10" pointer-events="none"/><path d="M 370 30 L 370 340 L 640 340 L 640 30" fill="#97d077" stroke="#000000" stroke-miterlimit="10" pointer-events="none"/><path d="M 370 30 L 640 30" fill="none" stroke="#000000" stroke-miterlimit="10" pointer-events="none"/><path d="M 400 30 L 400 340" fill="none" stroke="#000000" stroke-miterlimit="10" pointer-events="none"/><g fill="#000000" font-family="Helvetica" font-weight="bold" pointer-events="none" text-anchor="middle" font-size="12px"><text x="504.5" y="19.5">&lt;AccountName&gt;_Table</text></g><path d="M 370 30 M 640 30 M 640 60 L 370 60" fill="none" stroke="#000000" stroke-miterlimit="10" pointer-events="none"/><path d="M 370 30 M 400 30 M 400 60 M 370 60" fill="none" stroke="#000000" stroke-miterlimit="10" pointer-events="none"/><g fill="#000000" font-family="Helvetica" font-weight="bold" pointer-events="none" clip-path="url(#mx-clip-370-30-30-30-0)" text-anchor="middle" font-size="12px"><text x="384.5" y="49.5">PK</text></g><path d="M 400 30 M 640 30 M 640 60 M 400 60" fill="none" stroke="#000000" stroke-miterlimit="10" pointer-events="none"/><g fill="#000000" font-family="Helvetica" font-weight="bold" text-decoration="underline" pointer-events="none" clip-path="url(#mx-clip-406-30-234-30-0)" font-size="12px"><text x="407.5" y="49.5">TransactionID INT AUTO_INCREMENT</text></g><path d="M 370 60 M 640 60 M 640 90 M 370 90" fill="none" stroke="#000000" stroke-miterlimit="10" pointer-events="none"/><path d="M 370 60 M 400 60 M 400 90 M 370 90" fill="none" stroke="#000000" stroke-miterlimit="10" pointer-events="none"/><g fill="#000000" font-family="Helvetica" pointer-events="none" clip-path="url(#mx-clip-370-60-30-30-0)" text-anchor="middle" font-size="12px"><text x="384.5" y="79.5">FK</text></g><path d="M 400 60 M 640 60 M 640 90 M 400 90" fill="none" stroke="#000000" stroke-miterlimit="10" pointer-events="none"/><g fill="#000000" font-family="Helvetica" pointer-events="none" clip-path="url(#mx-clip-406-60-234-30-0)" font-size="12px"><text x="407.5" y="79.5">AccountID INT</text></g><path d="M 370 90 M 640 90 M 640 120 M 370 120" fill="none" stroke="#000000" stroke-miterlimit="10" pointer-events="none"/><path d="M 370 90 M 400 90 M 400 120 M 370 120" fill="none" stroke="#000000" stroke-miterlimit="10" pointer-events="none"/><path d="M 400 90 M 640 90 M 640 120 M 400 120" fill="none" stroke="#000000" stroke-miterlimit="10" pointer-events="none"/><g fill="#000000" font-family="Helvetica" pointer-events="none" clip-path="url(#mx-clip-406-90-234-30-0)" font-size="12px"><text x="407.5" y="109.5">date DATE</text></g><path d="M 370 120 M 640 120 M 640 150 M 370 150" fill="none" stroke="#000000" stroke-miterlimit="10" pointer-events="none"/><path d="M 370 120 M 400 120 M 400 150 M 370 150" fill="none" stroke="#000000" stroke-miterlimit="10" pointer-events="none"/><path d="M 400 120 M 640 120 M 640 150 M 400 150" fill="none" stroke="#000000" stroke-miterlimit="10" pointer-events="none"/><g fill="#000000" font-family="Helvetica" pointer-events="none" clip-path="url(#mx-clip-406-120-234-30-0)" font-size="12px"><text x="407.5" y="139.5">transactionID VARCHAR(16)</text></g><path d="M 370 150 M 640 150 M 640 180 M 370 180" fill="none" stroke="#000000" stroke-miterlimit="10" pointer-events="none"/><path d="M 370 150 M 400 150 M 400 180 M 370 180" fill="none" stroke="#000000" stroke-miterlimit="10" pointer-events="none"/><path d="M 400 150 M 640 150 M 640 180 M 400 180" fill="none" stroke="#000000" stroke-miterlimit="10" pointer-events="none"/><g fill="#000000" font-family="Helvetica" pointer-events="none" clip-path="url(#mx-clip-406-150-234-30-0)" font-size="12px"><text x="407.5" y="169.5">description VARCHAR(255)</text></g><path d="M 370 180 M 640 180 M 640 210 M 370 210" fill="none" stroke="#000000" stroke-miterlimit="10" pointer-events="none"/><path d="M 370 180 M 400 180 M 400 210 M 370 210" fill="none" stroke="#000000" stroke-miterlimit="10" pointer-events="none"/><path d="M 400 180 M 640 180 M 640 210 M 400 210" fill="none" stroke="#000000" stroke-miterlimit="10" pointer-events="none"/><g fill="#000000" font-family="Helvetica" pointer-events="none" clip-path="url(#mx-clip-406-180-234-30-0)" font-size="12px"><text x="407.5" y="199.5">transfer VARCHAR(255)</text></g><path d="M 370 210 M 640 210 M 640 240 M 370 240" fill="none" stroke="#000000" stroke-miterlimit="10" pointer-events="none"/><path d="M 370 210 M 400 210 M 400 240 M 370 240" fill="none" stroke="#000000" stroke-miterlimit="10" pointer-events="none"/><path d="M 400 210 M 640 210 M 640 240 M 400 240" fill="none" stroke="#000000" stroke-miterlimit="10" pointer-events="none"/><g fill="#000000" font-family="Helvetica" pointer-events="none" clip-path="url(#mx-clip-406-210-234-30-0)" font-size="12px"><text x="407.5" y="229.5">reconcile BOOLEAN</text></g><path d="M 370 240 M 640 240 M 640 270 M 370 270" fill="none" stroke="#000000" stroke-miterlimit="10" pointer-events="none"/><path d="M 370 240 M 400 240 M 400 270 M 370 270" fill="none" stroke="#000000" stroke-miterlimit="10" pointer-events="none"/><path d="M 400 240 M 640 240 M 640 270 M 400 270" fill="none" stroke="#000000" stroke-miterlimit="10" pointer-events="none"/><g fill="#000000" font-family="Helvetica" pointer-events="none" clip-path="url(#mx-clip-406-240-234-30-0)" font-size="12px"><text x="407.5" y="259.5">debit FLOAT</text></g><path d="M 370 270 M 640 270 M 640 300 M 370 300" fill="none" stroke="#000000" stroke-miterlimit="10" pointer-events="none"/><path d="M 370 270 M 400 270 M 400 300 M 370 300" fill="none" stroke="#000000" stroke-miterlimit="10" pointer-events="none"/><path d="M 400 270 M 640 270 M 640 300 M 400 300" fill="none" stroke="#000000" stroke-miterlimit="10" pointer-events="none"/><g fill="#000000" font-family="Helvetica" pointer-events="none" clip-path="url(#mx-clip-406-270-234-30-0)" font-size="12px"><text x="407.5" y="289.5">credit FLOAT</text></g><path d="M 370 300 M 640 300 M 640 330 M 370 330" fill="none" stroke="#000000" stroke-miterlimit="10" pointer-events="none"/><path d="M 370 300 M 400 300 M 400 330 M 370 330" fill="none" stroke="#000000" stroke-miterlimit="10" pointer-events="none"/><g fill="#000000" font-family="Helvetica" pointer-events="none" clip-path="url(#mx-clip-370-300-30-30-0)" text-anchor="middle" font-size="12px"><text x="384.5" y="319.5">FK</text></g><path d="M 400 300 M 640 300 M 640 330 M 400 330" fill="none" stroke="#000000" stroke-miterlimit="10" pointer-events="none"/><g fill="#000000" font-family="Helvetica" pointer-events="none" clip-path="url(#mx-clip-406-300-234-30-0)" font-size="12px"><text x="407.5" y="319.5">ledgerID INT</text></g><path d="M 640 315 L 730 315 L 730 390 L 320 390 L 320 315 L 363.63 315" fill="none" stroke="#000000" stroke-miterlimit="10" pointer-events="none"/><path d="M 368.88 315 L 361.88 318.5 L 363.63 315 L 361.88 311.5 Z" fill="#000000" stroke="#000000" stroke-miterlimit="10" pointer-events="none"/><path d="M 280 45 L 325 45 L 325 75 L 363.63 75" fill="none" stroke="#000000" stroke-miterlimit="10" pointer-events="none"/><path d="M 368.88 75 L 361.88 78.5 L 363.63 75 L 361.88 71.5 Z" fill="#000000" stroke="#000000" stroke-miterlimit="10" pointer-events="none"/><path d="M 370 195 L 325 195 L 325 105 L 286.37 105" fill="none" stroke="#000000" stroke-miterlimit="10" pointer-events="none"/><path d="M 281.12 105 L 288.12 101.5 L 286.37 105 L 288.12 108.5 Z" fill="#000000" stroke="#000000" stroke-miterlimit="10" pointer-events="none"/></g></svg>